<svg style="fill: #8f8f8f" xmlns="http://www.w3.org/2000/svg" xmlns:xlink="http://www.w3.org/1999/xlink" version="1.2" baseProfile="tiny" x="0px" y="0px" viewBox="0 0 100 125" xml:space="preserve"><path d="M50,5C25.187,5,5,25.187,5,50s20.187,45,45,45s45-20.187,45-45S74.813,5,50,5z M50,90c-22.056,0-40-17.944-40-40  s17.944-40,40-40s40,17.944,40,40S72.056,90,50,90z"/><path d="M51.768,25.732c-0.977-0.977-2.559-0.977-3.535,0l-22.5,22.5c-0.977,0.977-0.977,2.559,0,3.535s2.559,0.977,3.535,0  L47.5,33.535V70c0,1.381,1.119,2.5,2.5,2.5s2.5-1.119,2.5-2.5V33.535l18.232,18.232C71.221,52.256,71.86,52.5,72.5,52.5  s1.279-0.244,1.768-0.732c0.977-0.977,0.977-2.559,0-3.535L51.768,25.732z"/><text x="0" y="115" fill="#000000" font-size="5px" font-weight="bold" font-family="'Helvetica Neue', Helvetica, Arial-Unicode, Arial, Sans-serif"></text><text x="0" y="120" fill="#000000" font-size="5px" font-weight="bold" font-family="'Helvetica Neue', Helvetica, Arial-Unicode, Arial, Sans-serif"></text></svg>